<svg width="46" height="46" viewBox="0 0 46 46" fill="none" xmlns="http://www.w3.org/2000/svg">
<path d="M19.8872 0.973945C19.9648 0.725664 20.2262 0.582383 20.4778 0.60207C22.1589 0.598789 23.8411 0.598789 25.5222 0.60207C25.8044 0.57582 26.0712 0.766133 26.1391 1.04066C26.4694 2.02723 26.7877 3.01816 27.1169 4.00473C28.775 4.00801 30.4331 4.00035 32.0912 4.00801C32.4216 3.98504 32.7048 4.29566 32.6687 4.62269C32.6731 6.62754 32.6698 8.63348 32.6698 10.6394C36.7058 10.6427 40.7406 10.6383 44.7766 10.6416C45.0883 10.6044 45.4011 10.8614 45.3945 11.1819C45.4055 12.4605 45.4 13.7402 45.3967 15.0188C45.4164 15.3097 45.1758 15.5963 44.8783 15.5985C44.373 15.6204 43.8666 15.5985 43.3623 15.6061C43.358 16.5063 43.3667 17.4064 43.3591 18.3066C43.3798 18.5822 43.1753 18.8611 42.8964 18.8961C42.53 18.9268 42.1625 18.9016 41.7961 18.9104C41.795 26.058 41.7939 33.2057 41.7972 40.3544C42.7881 40.3555 43.7791 40.35 44.77 40.3555C45.0992 40.3172 45.4186 40.5983 45.3989 40.9341C45.3967 41.2513 45.0916 41.5061 44.7787 41.4755C30.2603 41.4777 15.7397 41.4777 1.22124 41.4755C0.94562 41.4985 0.666713 41.3125 0.61312 41.0369C0.532182 40.7186 0.790307 40.3632 1.12281 40.3621C2.15093 40.3358 3.17906 40.3708 4.20718 40.3468C4.19953 33.2013 4.20828 26.0558 4.2039 18.9104C3.8364 18.9027 3.46781 18.9235 3.10031 18.9005C2.80062 18.883 2.57312 18.5844 2.60374 18.2902C2.59828 17.3955 2.60593 16.5008 2.60156 15.6061C2.10828 15.5985 1.61499 15.6204 1.12171 15.5985C0.826401 15.5974 0.583589 15.3141 0.602182 15.0232C0.599995 13.7435 0.594526 12.4627 0.605464 11.183C0.596714 10.8582 0.916088 10.6011 1.22999 10.6416C5.25171 10.6394 9.27234 10.6427 13.293 10.6394C13.2952 8.63457 13.2919 6.62973 13.2941 4.62379C13.2547 4.27707 13.5697 3.96535 13.9164 4.00582C15.5723 4.00363 17.2272 4.00582 18.8831 4.00582C19.2233 2.99629 19.5405 1.98019 19.8872 0.973945ZM20.8169 1.72207C20.5609 2.48113 20.3148 3.24348 20.0644 4.00473C22.0211 4.00582 23.9789 4.00582 25.9356 4.00473C25.6852 3.24348 25.4391 2.48113 25.1831 1.72207C23.7273 1.72316 22.2726 1.72316 20.8169 1.72207ZM14.413 10.6394C20.1256 10.6416 25.8383 10.6405 31.5498 10.6394C31.5498 8.80301 31.552 6.96551 31.5498 5.12801C25.8372 5.12801 20.1256 5.12801 14.4141 5.1291C14.413 6.96551 14.4141 8.80301 14.413 10.6394ZM1.72109 11.7561C1.72218 12.6661 1.71453 13.575 1.72437 14.4839C15.9103 14.4796 30.0952 14.4883 44.28 14.4807C44.2789 13.5718 44.28 12.6639 44.2789 11.7561C30.093 11.7561 15.907 11.7561 1.72109 11.7561ZM3.72265 15.6083C3.72265 16.3335 3.72156 17.0597 3.72265 17.7849C16.5622 17.7882 29.4006 17.7849 42.2402 17.786C42.2423 17.0597 42.2412 16.3324 42.2402 15.6061C29.4017 15.6072 16.5622 15.6039 3.72265 15.6083ZM5.325 40.3533C6.49203 40.3533 7.65796 40.3566 8.825 40.3511C8.82281 33.2046 8.825 26.058 8.8239 18.9104C7.65796 18.9071 6.49203 18.9104 5.32609 18.9093C5.32281 26.0569 5.325 33.2057 5.325 40.3533ZM9.94499 18.9093C9.94281 26.0569 9.94609 33.2046 9.9439 40.3511C13.3389 40.3566 16.735 40.3533 20.13 40.3533C20.1289 33.2046 20.1333 26.0569 20.1278 18.9082C16.7339 18.9104 13.34 18.9082 9.94499 18.9093ZM21.2522 18.9093C21.2489 26.0569 21.25 33.2057 21.2511 40.3544C22.417 40.3533 23.583 40.3533 24.7489 40.3544C24.7511 33.2057 24.7511 26.058 24.7489 18.9093C23.583 18.9093 22.417 18.9093 21.2522 18.9093ZM25.8689 18.9104C25.8711 26.058 25.8689 33.2057 25.8711 40.3544C29.2661 40.3522 32.6611 40.3566 36.0561 40.3511C36.0539 33.2046 36.0572 26.0569 36.055 18.9104C32.66 18.9093 29.2639 18.9082 25.8689 18.9104ZM37.1772 18.9093C37.1772 26.058 37.1695 33.2068 37.1805 40.3555C38.3453 40.3511 39.5102 40.3555 40.675 40.3533C40.675 33.2057 40.6761 26.058 40.6739 18.9093C39.508 18.9093 38.342 18.9093 37.1772 18.9093Z" fill="white"/>
<path d="M0.840604 44.3794C0.986073 44.2689 1.17529 44.282 1.34592 44.2755C15.6751 44.2776 30.0033 44.2776 44.3325 44.2755C44.6683 44.2853 45.1189 44.2 45.3179 44.55C45.5706 44.9273 45.2129 45.4633 44.7711 45.3987C30.257 45.4009 15.7429 45.3998 1.22889 45.3987C0.672167 45.4873 0.360448 44.6769 0.840604 44.3794Z" fill="white"/>
</svg>
