<svg width="48" height="48" viewBox="0 0 48 48" fill="none" xmlns="http://www.w3.org/2000/svg">
<path fill-rule="evenodd" clip-rule="evenodd" d="M16 24C16 23.4477 16.4477 23 17 23H31C31.5523 23 32 23.4477 32 24C32 24.5523 31.5523 25 31 25H17C16.4477 25 16 24.5523 16 24Z" fill="white"/>
<path fill-rule="evenodd" clip-rule="evenodd" d="M24.7071 16.2929C25.0976 16.6834 25.0976 17.3166 24.7071 17.7071L18.4142 24L24.7071 30.2929C25.0976 30.6834 25.0976 31.3166 24.7071 31.7071C24.3166 32.0976 23.6834 32.0976 23.2929 31.7071L16.2929 24.7071C15.9024 24.3166 15.9024 23.6834 16.2929 23.2929L23.2929 16.2929C23.6834 15.9024 24.3166 15.9024 24.7071 16.2929Z" fill="white"/>
<rect x="0.75" y="0.75" width="46.5" height="46.5" rx="23.25" stroke="white" stroke-width="1.5"/>
</svg>
